<svg xmlns="http://www.w3.org/2000/svg" height="24" viewBox="0 -960 960 960" width="24"><path d="M479.972-389q-53.798 0-91.429-37.65-37.63-37.651-37.63-91.437v-238.326q0-53.786 37.658-91.437 37.659-37.65 91.457-37.65 53.798 0 91.429 37.65 37.63 37.651 37.63 91.437v238.326q0 53.786-37.658 91.437Q533.77-389 479.972-389ZM480-637.37Zm-43.587 531.957v-123.956q-108.065-14.479-178.457-96.855-70.391-82.376-70.391-191.863h87.413q0 85.152 59.983 145.087 59.983 59.935 145.087 59.935 85.104 0 145.039-59.969 59.935-59.969 59.935-145.053h87.413q0 109.544-70.391 191.892-70.392 82.347-178.457 96.826v123.956h-87.174ZM480-480q16.187 0 27.137-10.95t10.95-27.137v-238.326q0-16.187-10.95-27.137T480-794.5q-16.187 0-27.137 10.95t-10.95 27.137v238.326q0 16.187 10.95 27.137T480-480Z"/></svg>